<?xml version="1.0"?>
<svg id="Ebene_2" data-name="Ebene 2" xmlns="http://www.w3.org/2000/svg" viewBox="0 0 717.46 1077.22">
  <defs>
    <style>.cls-1{fill:#e8dcc0;}</style>
  </defs>
  <g id="Ebene_1-2" data-name="Ebene 1">
    <g>
      <path class="cls-1" d="M360.13,1063.45l-1.44,13.77-1.07-24.23-5.42-88.53-22.46-32.32,15.92-16.12c5.05-5.11-4.75-5.03-4.74-11.86l.1-64.15,16.7-21.76c.84-5.11.97-13.26-.23-18.21l-3.12-4.83c-.74-1.15,1.68-3.91,3.01-5.15,2.06-7.29.69-14.96-1.81-22.41-7.13-21.39-18.64-40.5-33.37-57.58l-3.39-.31c-.68-.06-.1-1.71.47-3.09-13.17-16.05-28.03-30.22-44.83-42.75l-24.13-18c-5.41-4.03-7.9-11.8-11.19-18.31,20.82,13.58,39.72,27.61,58.38,43.09,12.43,11.52,23.58,22.84,34.04,36l3.06.26c.62.05.93-2.26.93-3.09l.12-139.48c-9.14,12.88-19.08,22.82-31.9,31.63,1.59,1.29,3.08,1.81,5.26,2.28l-.12,77.4-10.54-10.04c-.66-2.63-.05-7.53-.5-10.5l-1.26-8.23-.4,16.49-10.27-8.18-.07-44.97c-1.46-3.24-5.27-7.41-7.61-10.22l.17-16.76,2.37-18.52,2.25,13.81c2.32-4.16,2.66-8.64,3.09-13.51l3.44-38.8,6.96-67.54,4.17,41.24,6.97,69.65,7.4-6.99-.08-62.49c0-2.14.28-3.69.52-5.59l4.97-38.91,4.41,36.97,5.06-5.95-.51-77.59c-.02-2.99-.58-5.45-.26-8.12l4.37-37.35,3.22,32.6c2.23-2.62,2.7-5.06,2.71-8.16l.12-64.85.13-15.2.9-9.93,3.17-28.92c1.01-1.1,1.63-1.03,1.16.62l2.57,31.88,4.85-55.66,4.37-49.72-3.19-4.1c-.74-.95,2.17-3.04,2.91-4.03,1.26-1.69,2.37-6.86,1.46-9.03-3.84-9.1-9.02-18.17-14.85-27.28-3.17-4.94-8.88-9.06-13.06-13.63l22.54-36.29,5.6-84.77.51-17.15,1.39,9.08.76,18.63,5.13,73.86c6.53,12.71,14.57,24.41,22.62,36.63-3.92,4.21-9.35,7.96-12.33,12.45-6.28,9.48-11.21,18.39-15.79,28.67-.85,1.9-.03,6.73,1.14,8.38l2.8,3.97c.65.92-1.42,3.35-2.72,4.36l7.64,94.93.2,10.13,1.43.03,2.81-34.15,3.61,32.15,1.34,8.86.41,16.97-.09,59.12c0,4.94-.08,9.1,2.18,13.47l3.69-33.54,4.19,36.58c.34,2.95.11,5.23.1,8.56l-.4,77.65,4.9,6,4.42-38.01,4.72,40.03c.22,1.83.48,3.27.49,5.35l.27,62.51,6.88,6.52,11.31-110.17,3.87,37.15,7.5,77.16c.09.97,1.35,3.54,1.78,4.13l2.76-12.66,1.91,18.59-.03,16.74-6.85,9.49v45.71s-10.12,7.55-10.12,7.55l-.15-76.6c1.12-2.7.85-4.58.6-7.64l-1.18-14.55c-.46,6.71-1.05,13.19-2.97,19.62,1.18,1.48,2.47,4.42,2.23,6.08-.77,5.24-.33,9.22-.47,14.22l-.21,7.15-.15,53.4-11.01,10.95v-77.3c2.55.62,3.82.15,4.87-1.21.65-.84-1.16-2.25-2.54-3.19-11.53-7.88-20.75-17.87-29.08-29.06l.05,138.5c0,.97.79,3.18,1.26,3.88s2.88-.54,3.41-1.12c14.5-18.08,30.68-33.73,48.86-48.08l44.09-31.16-3.49,13.51-24.19,17.06c-20.17,14.23-37.7,30.53-53.58,49.38-15.02,17.83-28.11,36.28-35.29,58.74-2.62,8.18-5.04,16.59-2.58,24.9l3.6,4.51-4.55,6.34.38,17.2,16.47,21.31-.03,66.06c0,3.86-3.28,5.54-7.36,6.31l18.81,20.35-22.32,31.95-5.88,99.12ZM359.1,164.26c5.22-10.68,10.89-19.29,18.03-26.59l-18.01-30.07-18.03,30.05c7.97,7.9,13.39,16.84,18,26.61ZM362.07,327.66l-1.8-47.59c.12-2.2-.3-3.94-1.85-5.03l-2.18,52.9,5.82-.27ZM363.29,365.82l-.98-23.79c-.08-1.89-1.99-5.22-3.16-7.51-2.47,3.95-3.79,8.07-3.83,12.46l-.14,19.19c1.8-1.31,3.55-3.18,4.42-2.64l3.69,2.3ZM359.26,413.12l5.96,3.94-.47-35.78c-.04-2.85-3.41-6.92-5.45-9.13-2.09,2.15-5.73,6.19-5.76,8.87l-.39,36.15,6.11-4.05ZM370.78,488.67l-.22-48.62c-2.24-6.2-6.06-11.14-11.38-15.51-5.57,4.1-9.62,9.26-11.44,15.67l-.05,48.66,23.1-.21ZM361.5,682.55l10.55,3.8-.64-128.17-.42-60.74-23.76-.08-.46,61.39-.17,127.53,10.73-3.9c.46-.17,1.44-1.96,1.66-2.4.15-.29.7.49.88.76s1.35,1.7,1.63,1.81ZM326.27,551.18c2.18-1.86,3.06-4.35,3.05-6.97l-.08-32.53-3.19,5.22.22,34.28ZM391.93,551.06l.4-34.83-3.09-4.52-.07,34.59c0,1.22,1.38,3.47,2.76,4.76ZM358.08,698.41l.24-9.38c-10.02,1.04-17.49,7.64-17.67,18.09l8.25-.15c.88-5.2,3.78-7.79,9.17-8.56ZM369.56,707.18l8.37-.11c-.76-9.82-7.9-16.72-17.55-18.05l.29,9.34c4.86,1.16,7.42,4.01,8.9,8.82ZM358.06,719.16c-5.74-.99-8.12-3.71-9.32-8.86l-8.63.22c1.86,10.12,8.55,16.32,17.9,17.24l.05-8.6ZM361,727.73c10.12-2.73,14.88-7.91,16.93-17.32l-8.64.08c-1.27,5.66-3.87,7.46-8.83,8.79l.54,8.44ZM360.73,747.92l9.26-17.79-9.45,3.2.19,14.59ZM358.03,733.16l-9.47-2.26,9.36,18.33.11-16.07ZM359.21,959.42l17.39-26.96-11.3-12.52c1.41-4.33,2.99-8.62,2.99-12.97l.04-62.76c-.95-4.95-5.84-9.38-9.2-13.31-3.18,3.7-8.94,8.43-9.21,13.76l-.03,64.37c0,4.07.77,6.98,2.37,11.16l-10.77,12.47,17.73,26.74Z"></path>
      <path class="cls-1" d="M547.51,441.97c-.42,3.94-1.97,6.76-6.3,7.56,2.02,14,3.63,26.84,3.6,41.06l29.34,2.25v4.01s-28.28,1.85-28.28,1.85c-.31,15.33-2.37,29.23-6.19,44.42l6.72,3.36-1.56,7.36,18.72,9.05c.92.44.46,3.21-.34,4.98l-21.43-6.9c-1.4,3.63-3.04,5.04-5.76,6.27l-5.84,14.35-4.65-2.55c-2.53-1.38-8.03,14.12-14.57,19.78l-8.53,7.38-51.07,34.46-.23-13.92c57.27-32.81,85.81-97.18,78.86-162.74-5.2-49.04-30.14-93.45-68.69-123.92-21.13-16.71-45.87-26.36-72.03-31.81l-.02-21.77,9.73,1.36c-.2,4.04-.12,6.46.86,9.79,13.38,3.23,25.48,7.56,38.09,12.65l4.1-5.5,8.36-14.83,3.93,1.79-9.23,22.65c12.2,6.52,22.98,13.94,33.55,22.55,1.6-1.03,3.6-1.76,4.35-1.09.9.79.91,3.08.18,4.85,11.06,11.23,21.14,23.07,30.04,36.69l5.77-2.18,4.68,4.73,8.98-5.11,5.01,6.35-9.94,6.06,2.41,6.57-5.81,4.55,13.25,35.67c3.32-1.41,6.29-.92,8.1,1.59l15.74-3.72c1.24-.29,2.52,4.08,1.37,4.5l-15.26,5.56Z"></path>
      <path class="cls-1" d="M173.08,490.53c.57-13.98,1.67-27.01,4.04-41.01-4.08-.92-7.14-3.01-6.12-7.51l-16.74-5.9c-.36-1.04.96-4.07,2.02-3.85l15.58,3.18c2.49-2.97,5.28-2.83,8.54-1.32,3.82-12.18,7.73-23.4,13.19-35.2l-5.6-4.8,2.79-6.47-10.24-6.77,4.43-6,9.44,4.99,4.97-5.84,6.19,3.07c8.04-13.37,17.93-24.89,28.86-35.8-.29-1.53-.43-4.82.66-4.9l5.22-.38c9.9-7.51,20.86-14.94,31.85-21.1l-1.71-7.27-7.17-15.44,4.05-2.44,8.46,14.68,5.14,5.69c12.48-5.2,24.13-9.22,37.18-12.2l.97-9.5c1.88-.99,6.03-1.66,9.67-1.77l.12,21.77c-92.22,17.23-151.08,104.94-140.5,196.64,4.61,39.95,22.73,76.47,52.56,103.28,8.09,7.27,16.62,12.6,25.79,18.59l.03,13.36-52.15-34.54c-8.42-5.58-14.72-17.33-20.58-26.87l-6.24,2.66-4.32-10.55,4.75-1.55c1.12-.37-.9-4.4-1.44-3.84l-7.77,1.71-2.87-6.35-20.2,6.42c-1.31.42-3.19-3.61-2.07-4.34l19.29-9.08-1.42-7.41,7.24-3.75c-3.94-14.28-5.91-28.29-6.09-43.85l-28.56-2.18v-3.72s28.75-2.49,28.75-2.49Z"></path>
      <path class="cls-1" d="M404.93,839.54l.21,11.26-11.51,14.86-.12-131.35c16.81-22.33,34.46-42.84,57.61-60.94l.1,116.26-14.47,18.96-29.89,39.91-.72-9.2-1.19.24ZM436.01,707.41l1.25,14.63.05,41.08.94-.55.04-61.72c-12.48,11.53-23.35,23.51-33.09,37.68l.09,98.03.93.59.09-96.85c7.92-13.16,17.63-23.95,29.69-32.89Z"></path>
      <path class="cls-1" d="M503.74,640.87c-2.49-2.85-1.25-6-.94-9.18l-13.04,10.92-12.43,10.76,1.51,11.98,1.44-9.37c1.63-2.58,4.85-7.52,7.13-9.38l9.35-7.62c1.14,4.69.11,7.94-1.78,11.8l-6.25,12.77c-3.78,7.71-10.68,14.18-10.78,23.87,11.02-18.2,24.16-34.1,42.99-45.62-6.48,14.01-14.25,28.03-15.66,44.21l.03,33.58,73.58-99.9,58.36-77.36,7.53,7.91-59.55,78.8-80.29,108.79-.04,17.1-106.48,141.05-7.46,9.08-9.68-2.3,3.64-6.24,87.79-115.66.03-114.73c0-3.32,1.25-6.16,2.76-9.09.86-4.73.97-12.02,4.94-15.77,11.66-11.02,24.04-19.93,37.94-28.72l-14.66,28.3ZM477.84,773.71l18.14-24.08.23-60.52c.03-8.54,4.29-15.74,6.02-24.58l-16.7,20.84c-4.44,5.54-6.54,12.53-7.75,19.66l.06,68.69Z"></path>
      <path class="cls-1" d="M215.36,631.91l.61,5.44c.06.53-.35,1.91-.55,2.39-.25.64-2.19-.72-2.73-1.21l-13.8-26.06c14.73,8.7,26.8,18.03,39.76,28.3,2.1,2.3,2.63,8.03,2.57,11.14l4.05,11.4.07,117.49,91.45,120.62c-3.22,2.71-5.83,4.17-9.47,4.68l-114.03-150.99-.06-17.22-84.85-114.89-54.76-72.56,7.1-8.36,68,90.53,64.08,86.94-.13-34.01c-1.32-15.94-8.69-29.13-15.88-43.87,18.33,11.4,31.84,26.47,42.96,44.64.52-2.93-1.01-5.46-2.4-8.28l-11.96-24.28-5.05-8.18,6.56-2.03c7.31,5.29,10.2,14.09,11.88,22.61-.01-4.93-.36-8.67,1.77-13.34l-15.75-13.18-9.43-7.7ZM240.17,773.27l.19-69.23c-2.22-14.53-13.09-27.63-24.59-38.61,2.56,9.19,6.09,17.13,6.08,26.64l-.04,57.46,18.36,23.74Z"></path>
      <path class="cls-1" d="M112.15,455.3l-31.24,42.11-7.14-7.82,103.36-140.63,76.84-103.16,68.22-89.74,13.6-.51-118.46,156.5,16.72,19.42c.44.51-.8,2.97-1.38,2.88s-2.6-.63-3.07-1.14l-15.34-16.91-102.11,139Z"></path>
      <path class="cls-1" d="M637.15,497.41l-133.33-181.59-16.12,18.33c-.46.37-2.1.68-2.66.51-.74-.23-1.29-2.95-.64-3.69l16.5-18.96-118.31-156.19,13.04.07,118.86,156.96,129.85,176.72-7.19,7.85Z"></path>
      <path class="cls-1" d="M299.66,722.28l12.68,18.14-.18,109.01-31.5-42.23.65-100.96c5.64,3.49,9.35,8.29,14.33,12.57l4.02,3.46Z"></path>
      <path class="cls-1" d="M299.66,722.28l-3.42-4.99-16.8-17.53.52,18.67.69,88.77-13.65-17.21v-116.68c22.34,18.07,40.92,37.87,57.76,61.1l-.04,131.17-11.43-14.54v-111.9c-4.18-6.13-8.29-12.28-13.63-16.87Z"></path>
      <path class="cls-1" d="M261.37,583.44c.75-.91,3.98.3,4.14,1.34s-.45,3.34-1.23,4.29l-8.14,9.86,10.54,8.49.15,16.07-21.3-14.72-6.42-5.62c-28.96-27.61-45.74-65.14-49.14-104.86l20.33-.77-.68-6.14,6.12-5.03c3.03-2.49,7.89.77,9.44,3.31,1.9,3.11,1.84,7.25-.4,10.3-2.11,2.88-6.95,4.35-10.44,1.97-2.78-1.9-5.42-2.88-9.54-2.61,1.69,19.47,7.09,37.7,15.96,55.41l11.44-6.7c1.47-.86,3.34-2.22,4.84-2.81,1.34-.52,3.06,3.38,3.14,5.2l-16.72,9.4c7.81,13.92,16.61,24.76,27.99,35.74l9.92-12.13Z"></path>
      <path class="cls-1" d="M456.51,583.32l9.54,12.13c11.4-10.53,20.92-22.3,28.7-35.95l-16.11-8.41c-1.3-.68-.63-3.71.55-4.83,1.75-1.68,3.73-.15,5.85,1.06l12.48,7.12c8.25-17.35,13.84-35.03,15.67-54.32-2.78-1.49-6.09-.58-8.39,1.39-4.05,3.47-10.07,1.34-12.28-3.14-2.09-4.22-.42-10.14,5.14-12.36,2.4-.96,6.03.33,7.88,2.23,2.27,2.34,2.63,4.69,2.47,9.21l19.89.82c-4.25,50.88-31.14,99.04-76.58,124.91l-.1-15.91,10.29-7.94-8.94-12.04c-.85-1.15,1.92-3.84,3.95-4Z"></path>
      <path class="cls-1" d="M505.79,429.76l-17.07,6.61-2.68-5.13,17.57-7.5c-7.05-18.42-16.5-34.44-29.78-49.93l-14.41,12.09c-3.45-1.24-6.38-3.69-8.26-8,2.58-1.17,5.97-1.63,8.87-1.91l17.03-18.43c16.92,17.25,29.9,37.77,39.34,60.81l-6.65,3.17c-.82.39-1.31,2.78-.64,3.28s2.79,1.16,3.55.81l5.54-2.58c7.59,22.18,11.57,44.6,10.17,68.03l-14.49.14c1.31-21.1-1.75-40.81-8.07-61.48Z"></path>
      <path class="cls-1" d="M204.29,491.37l-14.75-.21c-1.14-22.95,2.77-45.98,10.53-68.05l9.32,3.1,2.3-3.69-9.7-3.91c8.29-22.16,21.11-41.85,37.59-59.64l9.81,9.42c-15.58,16.07-26.33,34.47-34.71,55.6l16.34,7.17-1.49,5.49-17.15-6.77c-6.62,20.23-9.22,39.97-8.09,61.48Z"></path>
      <path class="cls-1" d="M654.56,539.56l-23.05-19.13-56.27,3.18c-2.01.11-3.74-3.44-3.09-4.97,1.09-2.58,3.31-2.72,6.11-2.56l53.08,3.17,23.06-19.28,24.07,11.81c12.05,5.91,25.31,6.38,38.98,7.85-10.93,1.82-22.03,2.08-32.81,5.77l-30.08,14.14Z"></path>
      <path class="cls-1" d="M86.29,520.52l-22.93,19.16c-10.27-5.73-20.06-11.06-31.01-14.62s-21.08-3.47-32.35-5.34c12.36-1.46,24.52-2.13,36.35-6.65,9.44-3.6,18.13-8.23,27.12-13.16l22.45,18.76h16.21s38.18-2.6,38.18-2.6c2.33-.16,4.63.2,5.8,1.67,1.06,1.33-.11,5.95-1.83,5.86l-57.99-3.08Z"></path>
      <path class="cls-1" d="M463.91,363.14c-10.14-9.51-20.45-17.12-32.61-24.23l6.13-11.43c13.21,7.17,24.29,15.05,35.2,25.89l-8.72,9.76Z"></path>
      <path class="cls-1" d="M254.08,363.56c-3.36-2.42-6.37-5.8-9.28-9.6,10.73-10.24,21.42-18.22,34.82-25.5l6.34,11.16c-11.51,6.95-21.25,13.54-31.88,23.95Z"></path>
      <path class="cls-1" d="M426.23,336.33c-10.23-4.66-20.31-8.08-30.77-10.92l2.33-12.62c11.72,2.72,23.3,6.89,34.42,12.18l-5.97,11.36Z"></path>
      <path class="cls-1" d="M291.67,336.78l-6.3-11.26c11.23-5.39,21.88-9.29,33.93-12.42l2.37,12.51c-10.21,3.05-19.19,6.08-30.01,11.18Z"></path>
      <path class="cls-1" d="M294.77,412.05c.93,1.12,1.62,2.68,1.14,3.29-.59.77-3.28.86-3.95.15l-22.66-23.55-1.1-5.61,5.5.19,21.06,25.52Z"></path>
      <path class="cls-1" d="M425.01,416.19c-1.22-.22-3.88-1.19-3.52-1.77l1.58-2.48,20.8-25.76,5.53,4.17-24.38,25.84Z"></path>
      <path class="cls-1" d="M260.65,385.49c-2.36.96-6.67-3.38-7.88-6.57l7.8-5.51c1.5.16,4.34,1.66,5.33,2.76,1.34,1.5,1.04,4.58.19,7.12l-5.44,2.2Z"></path>
      <path class="cls-1" d="M420.45,357.14c-1.5.3-5.4-2.02-5.77-3.48-.47-1.88,1.35-6.18,3.08-7.23s6.3,1.17,7.28,2.91c0,2.37-2.08,6.16-4.59,7.8Z"></path>
      <path class="cls-1" d="M530.84,621.09l-10.53-7.43c-1.05-.83,1.53-4.49,2.98-4.52l10.24,6.96-2.7,4.98Z"></path>
      <rect class="cls-1" x="183.93" y="612.13" width="13.25" height="5.98" transform="translate(-298.09 195.7) rotate(-32.15)"></rect>
      <circle class="cls-1" cx="389.36" cy="233.88" r="4.63"></circle>
      <circle class="cls-1" cx="328.75" cy="233.78" r="4.67"></circle>
      <path class="cls-1" d="M243.78,444.21c-3.42.69-5.17-2.37-5.24-4.76-.05-1.71,2.09-4.24,4.62-4.91,1.47-.39,3.67,1.99,4.08,3.43.65,2.27-.61,5.67-3.46,6.25Z"></path>
      <circle class="cls-1" cx="474.38" cy="439.51" r="3.96"></circle>
      <circle class="cls-1" cx="303.09" cy="363.96" r="3.84"></circle>
      <circle class="cls-1" cx="159.94" cy="619.45" r="3.55"></circle>
      <circle class="cls-1" cx="558.38" cy="619.55" r="3.47"></circle>
      <path class="cls-1" d="M358.32,887.14l-.02-33.65c-1.46-1.49-3.04-3.97-2.7-5.36s2.9-4.6,4.04-3.75c1.39,1.05,2.94,3.16,3.41,4.3s-2.67,3.55-2.68,4.82l-.12,33.04-1.93.6Z"></path>
    </g>
  </g>
</svg>